<?xml version="1.0" encoding="UTF-8"?>
<svg id="Layer_1" data-name="Layer 1" xmlns="http://www.w3.org/2000/svg" viewBox="0 0 309.27 312.35">
  <defs>
    <style>
      .cls-1 {
        fill: #fff;
      }

      .cls-2 {
        fill: none;
      }

      .cls-2, .cls-3 {
        stroke: #fff;
        stroke-miterlimit: 10;
      }

      .cls-3 {
        fill: #2b3990;
        stroke-width: 11px;
      }
    </style>
  </defs>
  <path class="cls-3" d="m191.66,36.39l13.05,44.98c3.68,12.68,13.6,22.6,26.28,26.28l44.98,13.05c37.08,10.76,37.08,63.29,0,74.04l-44.98,13.05c-12.68,3.68-22.6,13.6-26.28,26.28l-13.05,44.98c-10.76,37.08-63.29,37.08-74.04,0l-13.05-44.98c-3.68-12.68-13.6-22.6-26.28-26.28l-44.98-13.05c-37.08-10.76-37.08-63.29,0-74.04l44.98-13.05c12.68-3.68,22.6-13.6,26.28-26.28l13.05-44.98c10.76-37.08,63.29-37.08,74.04,0Z"/>
  <path class="cls-3" d="m68.62,214.62l2.99,10.31c.84,2.91,3.12,5.18,6.02,6.02l10.31,2.99c8.5,2.46,8.5,14.5,0,16.97l-10.31,2.99c-2.91.84-5.18,3.12-6.02,6.02l-2.99,10.31c-2.46,8.5-14.5,8.5-16.97,0l-2.99-10.31c-.84-2.91-3.12-5.18-6.02-6.02l-10.31-2.99c-8.5-2.46-8.5-14.5,0-16.97l10.31-2.99c2.91-.84,5.18-3.12,6.02-6.02l2.99-10.31c2.46-8.5,14.5-8.5,16.97,0Z"/>
  <path class="cls-3" d="m241.08,18.41l6.06,20.89c1.71,5.89,6.31,10.49,12.2,12.2l20.89,6.06c17.22,5,17.22,29.39,0,34.38l-20.89,6.06c-5.89,1.71-10.49,6.31-12.2,12.2l-6.06,20.89c-5,17.22-29.39,17.22-34.38,0l-6.06-20.89c-1.71-5.89-6.31-10.49-12.2-12.2l-20.89-6.06c-17.22-5-17.22-29.39,0-34.38l20.89-6.06c5.89-1.71,10.49-6.31,12.2-12.2l6.06-20.89c5-17.22,29.39-17.22,34.38,0Z"/>
  <path class="cls-1" d="m132.8,186.81v-58.2c0-1.33,1.08-2.41,2.41-2.41h17.06c7.33,0,12.87,1.34,16.62,4.02,3.75,2.68,5.63,6.66,5.63,11.93,0,3.22-.86,5.95-2.56,8.19-.87,1.14-1.95,2.14-3.26,3.02-1.44.97-1.34,3.1.18,3.94,1.7.93,3.15,2.15,4.34,3.64,2.17,2.71,3.26,6.02,3.26,9.93,0,6.06-2.24,10.62-6.71,13.71-4.48,3.08-11.1,4.63-19.88,4.63h-14.67c-1.33,0-2.41-1.08-2.41-2.41Zm13.69-38.11c0,1.33,1.08,2.41,2.41,2.41h2.59c2.96,0,5.27-.64,6.93-1.93,1.67-1.29,2.5-3.11,2.5-5.45s-.79-4.07-2.37-5.17c-1.58-1.1-4.05-1.65-7.41-1.65h-2.24c-1.33,0-2.41,1.08-2.41,2.41v9.39Zm0,26.73c0,1.33,1.08,2.41,2.41,2.41h3.85c3.01,0,5.38-.74,7.1-2.22s2.59-3.5,2.59-6.08-.84-4.47-2.52-5.84c-1.68-1.38-4.07-2.06-7.17-2.06h-3.85c-1.33,0-2.41,1.08-2.41,2.41v11.39Z"/>
  <path class="cls-2" d="m130.54,128.88c.16,1.03-1.01-4.71,3.6-4.49"/>
  <path class="cls-2" d="m177.88,176.94c-3.71,11.29-13.19,12.17-13.19,12.15"/>
</svg>