<?xml version="1.0" encoding="UTF-8"?>
<svg id="Layer_1" data-name="Layer 1" xmlns="http://www.w3.org/2000/svg" viewBox="0 0 416.93 265.93">
  <defs>
    <style>
      .cls-1 {
        fill: #fff;
      }

      .cls-2 {
        fill: none;
      }

      .cls-2, .cls-3, .cls-4, .cls-5 {
        stroke: #fff;
        stroke-miterlimit: 10;
      }

      .cls-3 {
        stroke-width: 6px;
      }

      .cls-3, .cls-4, .cls-5 {
        fill: #2b3990;
      }

      .cls-4 {
        stroke-width: 7px;
      }

      .cls-5 {
        stroke-width: 11px;
      }
    </style>
  </defs>
  <path class="cls-5" d="m297.54,59.09h0c4.8,16.54,17.73,29.47,34.27,34.27h0c48.35,14.03,48.35,82.52,0,96.55h0c-16.54,4.8-29.47,17.73-34.27,34.27h0c-14.03,48.35-82.52,48.35-96.55,0h0c-4.8-16.54-17.73-29.47-34.27-34.27h0c-48.35-14.03-48.35-82.52,0-96.55h0c16.54-4.8,29.47-17.73,34.27-34.27h0c14.03-48.35,82.52-48.35,96.55,0Z"/>
  <path class="cls-3" d="m397.76,80.89h0c1.1,3.79,4.06,6.75,7.85,7.85h0c11.08,3.21,11.08,18.91,0,22.12h0c-3.79,1.1-6.75,4.06-7.85,7.85h0c-3.21,11.08-18.91,11.08-22.12,0h0c-1.1-3.79-4.06-6.75-7.85-7.85h0c-11.08-3.21-11.08-18.91,0-22.12h0c3.79-1.1,6.75-4.06,7.85-7.85h0c3.21-11.08,18.91-11.08,22.12,0Z"/>
  <path class="cls-4" d="m340.94,20.34h0c2.23,7.68,8.23,13.68,15.91,15.91h0c22.45,6.51,22.45,38.32,0,44.83h0c-7.68,2.23-13.68,8.23-15.91,15.91h0c-6.51,22.45-38.32,22.45-44.83,0h0c-2.23-7.68-8.23-13.68-15.91-15.91h0c-22.45-6.51-22.45-38.32,0-44.83h0c7.68-2.23,13.68-8.23,15.91-15.91h0c6.51-22.45,38.32-22.45,44.83,0Z"/>
  <path class="cls-1" d="m221.65,183.15v-83.03c0-1.9,1.54-3.44,3.44-3.44h24.34c10.46,0,18.36,1.91,23.72,5.73,5.35,3.82,8.03,9.5,8.03,17.02,0,4.59-1.22,8.48-3.66,11.69-1.23,1.62-2.79,3.06-4.65,4.31-2.05,1.38-1.91,4.43.26,5.62,2.42,1.33,4.49,3.06,6.2,5.19,3.1,3.87,4.65,8.59,4.65,14.17,0,8.64-3.19,15.16-9.58,19.56-6.39,4.4-15.84,6.6-28.37,6.6h-20.93c-1.9,0-3.44-1.54-3.44-3.44Zm19.53-54.38c0,1.9,1.54,3.44,3.44,3.44h3.69c4.22,0,7.51-.92,9.89-2.76,2.38-1.84,3.56-4.43,3.56-7.78s-1.13-5.81-3.38-7.38c-2.25-1.57-5.78-2.36-10.57-2.36h-3.2c-1.9,0-3.44,1.54-3.44,3.44v13.4Zm0,38.13c0,1.9,1.54,3.44,3.44,3.44h5.49c4.3,0,7.68-1.05,10.14-3.16s3.69-5,3.69-8.68-1.2-6.38-3.6-8.34c-2.4-1.96-5.81-2.94-10.23-2.94h-5.49c-1.9,0-3.44,1.54-3.44,3.44v16.26Z"/>
  <path class="cls-2" d="m.54,33.86c.22,1.47-1.45-6.71,5.14-6.4"/>
</svg>