<?xml version="1.0" encoding="UTF-8"?>
<svg id="Layer_1" data-name="Layer 1" xmlns="http://www.w3.org/2000/svg" viewBox="0 0 459.41 484.8">
  <defs>
    <style>
      .cls-1 {
        stroke-width: 6px;
      }

      .cls-1, .cls-2 {
        stroke: #fff;
      }

      .cls-1, .cls-2, .cls-3 {
        stroke-miterlimit: 10;
      }

      .cls-1, .cls-2, .cls-4 {
        fill: #2b3990;
      }

      .cls-2 {
        stroke-width: 7px;
      }

      .cls-3 {
        fill: #fee000;
        stroke: #2b3990;
        stroke-width: 11px;
      }
    </style>
  </defs>
  <path class="cls-3" d="m314.9,106.44h0c8.89,30.63,32.83,54.57,63.46,63.46h0c89.53,25.97,89.53,152.82,0,178.79h0c-30.63,8.89-54.57,32.83-63.46,63.46h0c-25.97,89.53-152.82,89.53-178.79,0h0c-8.89-30.63-32.83-54.57-63.46-63.46h0c-89.53-25.97-89.53-152.82,0-178.79h0c30.63-8.89,54.57-32.83,63.46-63.46h0c25.97-89.53,152.82-89.53,178.79,0Z"/>
  <rect class="cls-3" x="72.39" y="106.19" width="306.22" height="306.22" rx="32.59" ry="32.59"/>
  <path class="cls-2" d="m395.26,34.68h0c4.13,14.22,15.25,25.34,29.47,29.47h0c41.57,12.06,41.57,70.96,0,83.02h0c-14.22,4.13-25.34,15.25-29.47,29.47h0c-12.06,41.57-70.96,41.57-83.02,0h0c-4.13-14.22-15.25-25.34-29.47-29.47h0c-41.57-12.06-41.57-70.96,0-83.02h0c14.22-4.13,25.34-15.25,29.47-29.47h0c12.06-41.57,70.96-41.57,83.02,0Z"/>
  <path class="cls-4" d="m174.36,336.18v-153.76c0-3.51,2.85-6.36,6.36-6.36h45.08c19.36,0,34,3.54,43.92,10.62,9.91,7.08,14.87,17.59,14.87,31.52,0,8.5-2.26,15.71-6.78,21.64-2.29,3-5.16,5.66-8.62,7.99-3.8,2.55-3.54,8.2.47,10.41,4.49,2.47,8.31,5.67,11.48,9.62,5.74,7.16,8.61,15.9,8.61,26.24,0,16-5.91,28.07-17.74,36.23-11.83,8.15-29.34,12.23-52.53,12.23h-38.76c-3.51,0-6.36-2.85-6.36-6.36Zm36.17-100.7c0,3.51,2.85,6.36,6.36,6.36h6.84c7.81,0,13.91-1.7,18.31-5.11,4.4-3.4,6.6-8.21,6.6-14.41s-2.09-10.75-6.26-13.66c-4.17-2.91-10.7-4.36-19.58-4.36h-5.92c-3.51,0-6.36,2.85-6.36,6.36v24.82Zm0,70.61c0,3.51,2.85,6.36,6.36,6.36h10.17c7.96,0,14.22-1.95,18.77-5.86,4.55-3.9,6.83-9.26,6.83-16.07s-2.22-11.81-6.66-15.44c-4.44-3.63-10.76-5.45-18.95-5.45h-10.17c-3.51,0-6.36,2.85-6.36,6.36v30.1Z"/>
  <path class="cls-1" d="m113.2,350.69h0c2.04,7.02,7.52,12.5,14.54,14.54h0c20.51,5.95,20.51,35.02,0,40.97h0c-7.02,2.04-12.5,7.52-14.54,14.54h0c-5.95,20.51-35.02,20.51-40.97,0h0c-2.04-7.02-7.52-12.5-14.54-14.54h0c-20.51-5.95-20.51-35.02,0-40.97h0c7.02-2.04,12.5-7.52,14.54-14.54h0c5.95-20.51,35.02-20.51,40.97,0Z"/>
</svg>